<svg width="361" height="106" viewBox="0 0 361 106" fill="none" xmlns="http://www.w3.org/2000/svg">
<path d="M39.5014 6.53036L33.8859 12.9907C31.2786 10.77 27.8692 8.953 23.457 8.953C16.0364 8.953 10.0198 15.4134 10.0198 23.287C10.0198 31.1605 16.0364 37.6209 24.0586 37.6209C27.8692 37.6209 31.4792 36.2077 33.8859 33.5832L39.5014 39.8417C35.6909 44.0813 30.2759 46.1002 23.2564 46.1002C10.6214 46.3021 0.994751 36.0058 0.994751 23.4888C0.994751 10.77 11.0225 0.473755 23.457 0.473755C30.8775 0.473755 35.8914 2.8964 39.5014 6.53036ZM61.9636 0.473755C74.3981 0.473755 84.6264 10.77 84.6264 23.4888C84.6264 36.2077 74.3981 46.5039 61.9636 46.5039C49.5292 46.5039 39.3009 36.2077 39.3009 23.4888C39.5014 10.77 49.5292 0.473755 61.9636 0.473755ZM61.9636 37.8228C69.3842 37.8228 75.6014 31.3624 75.6014 23.4888C75.6014 15.6153 69.5847 9.15489 61.9636 9.15489C54.5431 9.15489 48.5264 15.6153 48.5264 23.4888C48.5264 31.3624 54.5431 37.8228 61.9636 37.8228ZM90.0414 45.4945V1.48319H104.481C118.921 1.48319 129.15 10.77 129.15 23.4888C129.15 36.2077 118.921 45.2926 104.883 45.2926H90.0414V45.4945ZM104.481 9.55866H98.6653V37.419H104.481C113.908 37.419 120.125 31.9681 120.125 23.4888C120.125 15.0096 113.908 9.55866 104.481 9.55866ZM134.364 45.4945V1.48319H162.643V9.55866H142.788V19.2492H159.835V27.3247H142.788V37.419H162.643V45.4945H134.364Z" fill="#A3C2FF"/>
<path d="M83.6236 65.0776L78.0081 71.5379C75.4009 69.3172 71.9914 67.5002 67.5792 67.5002C60.1586 67.5002 54.142 73.9606 54.142 81.8342C54.142 89.7078 60.1586 96.1681 68.1809 96.1681C71.9914 96.1681 75.6014 94.7549 78.0081 92.1304L83.6236 98.3889C79.8131 102.629 74.3981 104.647 67.3786 104.647C54.5431 104.647 44.9164 94.3512 44.9164 81.6323C45.117 69.3172 55.1447 59.021 67.5792 59.021C74.9997 59.021 80.0136 61.4436 83.6236 65.0776ZM106.086 59.021C118.52 59.021 128.749 69.3172 128.749 82.0361C128.749 94.7549 118.52 105.051 106.086 105.051C93.6514 105.051 83.4231 94.7549 83.4231 82.0361C83.6236 69.3172 93.6514 59.021 106.086 59.021ZM106.086 96.37C113.506 96.37 119.724 89.9096 119.724 82.0361C119.724 74.1625 113.707 67.7021 106.086 67.7021C98.6653 67.7021 92.6486 74.1625 92.6486 82.0361C92.6486 89.9096 98.6653 96.37 106.086 96.37ZM162.843 104.042L142.587 74.1625V104.042H134.164V60.0304H143.389L163.846 90.1115V60.0304H172.269V104.042H162.843ZM208.169 104.042L187.913 74.1625V104.042H179.489V60.0304H188.715L209.171 90.1115V60.0304H217.595V104.042H208.169ZM224.815 104.042V60.0304H253.093V68.1059H233.238V77.7964H250.285V85.8719H233.238V95.9662H253.093V104.042H224.815ZM293.204 65.0776L287.589 71.5379C284.981 69.3172 281.572 67.5002 277.16 67.5002C269.739 67.5002 263.723 73.9606 263.723 81.8342C263.723 89.7078 269.739 96.1681 277.761 96.1681C281.572 96.1681 285.182 94.7549 287.589 92.1304L293.204 98.3889C289.394 102.629 283.979 104.647 276.959 104.647C264.124 104.647 254.497 94.3512 254.497 81.6323C254.497 68.9134 264.525 58.6172 276.959 58.6172C284.38 59.021 289.594 61.4436 293.204 65.0776ZM327.098 68.1059H314.062V104.042H305.639V68.1059H292.603V60.0304H327.098V68.1059ZM360.591 66.4908L354.775 72.3455C352.769 69.5191 348.959 67.2983 344.546 67.2983C340.535 67.2983 338.129 69.1153 338.129 71.7398C338.129 79.6134 361.193 75.9795 361.193 91.5247C361.193 99.3983 354.574 105.253 344.546 105.253C335.521 105.253 330.307 101.619 327.499 97.3795L333.516 91.7266C336.324 95.3606 340.134 97.1776 344.546 97.1776C349.36 97.1776 351.967 95.1587 351.967 92.1304C351.967 83.6512 328.903 87.487 328.903 72.1436C328.903 64.6738 335.521 59.4247 344.948 59.4247C351.967 59.021 357.583 62.2512 360.591 66.4908Z" fill="white"/>
<path d="M62.1642 29.3436C65.4871 29.3436 68.1809 26.6319 68.1809 23.287C68.1809 19.942 65.4871 17.2303 62.1642 17.2303C58.8413 17.2303 56.1475 19.942 56.1475 23.287C56.1475 26.6319 58.8413 29.3436 62.1642 29.3436Z" fill="#38C1CF" stroke="#38C1CF"/>
<path d="M106.286 87.8907C109.609 87.8907 112.303 85.179 112.303 81.8341C112.303 78.4891 109.609 75.7775 106.286 75.7775C102.964 75.7775 100.27 78.4891 100.27 81.8341C100.27 85.179 102.964 87.8907 106.286 87.8907Z" fill="#38C1CF" stroke="#38C1CF"/>
<path d="M62.1642 42.4662C72.192 41.8606 77.8075 36.8134 79.2114 27.3247" stroke="#A3C2FF" stroke-width="5"/>
<path d="M105.284 63.6643C95.2559 64.27 89.6403 69.3171 88.2364 78.8058" stroke="white" stroke-width="5"/>
<path d="M62.1642 23.287L106.286 83.853L62.1642 23.287Z" fill="#38C1CF"/>
<path d="M62.1642 23.287L106.286 83.853" stroke="#38C1CF" stroke-width="3"/>
</svg>
