<svg width="18" height="23" viewBox="0 0 18 23" fill="none" xmlns="http://www.w3.org/2000/svg">
<path fill-rule="evenodd" clip-rule="evenodd" d="M15.8509 9.91667V15.75L17.3559 17.255C18.0909 17.99 17.5659 19.25 16.5276 19.25H1.16256C0.124223 19.25 -0.38911 17.99 0.34589 17.255L1.85089 15.75V9.91667C1.85089 6.32333 3.75256 3.33667 7.10089 2.54333V1.75C7.10089 0.781667 7.88256 0 8.85089 0C9.81922 0 10.6009 0.781667 10.6009 1.75V2.54333C13.9376 3.33667 15.8509 6.335 15.8509 9.91667ZM11.1842 20.4167C11.1842 21.7 10.1342 22.75 8.85083 22.75C7.55583 22.75 6.5175 21.7 6.5175 20.4167H11.1842Z" fill="white"/>
</svg>
