<svg width="21" height="19" viewBox="0 0 21 19" fill="none" xmlns="http://www.w3.org/2000/svg">
<path d="M1.23822 16.905L2.59084 17.46V8.43519L0.152104 14.2901C-0.270274 15.3051 0.217472 16.48 1.23822 16.905ZM20.8486 13.1951L15.8606 1.23032C15.5488 0.480332 14.8147 0.0153406 14.0453 0.000340902C13.7788 -0.00465901 13.5073 0.0453402 13.2408 0.150338L5.8341 3.20028C5.07985 3.51028 4.61725 4.23526 4.59713 5.00025C4.59211 5.27025 4.63736 5.54024 4.74798 5.80524L9.73104 17.77C10.0478 18.53 10.787 18.99 11.5714 19C11.8329 19 12.0944 18.955 12.3508 18.85L19.7575 15.8001C20.7783 15.3801 21.271 14.2101 20.8486 13.1951ZM6.61349 6.00023C6.06037 6.00023 5.60783 5.55024 5.60783 5.00025C5.60783 4.45026 6.06037 4.00027 6.61349 4.00027C7.1666 4.00027 7.61915 4.45026 7.61915 5.00025C7.61915 5.55024 7.1666 6.00023 6.61349 6.00023ZM4.60216 17C4.60216 18.1 5.50726 19 6.61349 19H8.07673L4.60216 10.6601V17Z" fill="#283EAE"/>
</svg>
