<svg width="80" height="80" viewBox="0 0 80 80" fill="none" xmlns="http://www.w3.org/2000/svg">
<path d="M56.7623 69.7875L40.7373 58.0375C40.5233 57.8811 40.265 57.7968 39.9998 57.7968C39.7347 57.7968 39.4764 57.8811 39.2623 58.0375L23.2373 69.7875C23.049 69.9252 22.826 70.0074 22.5933 70.025C22.3607 70.0425 22.1279 69.9945 21.9211 69.8866C21.7143 69.7786 21.5418 69.615 21.4232 69.4141C21.3046 69.2133 21.2445 68.9832 21.2498 68.75V10C21.2498 9.66848 21.3815 9.35054 21.616 9.11612C21.8504 8.8817 22.1683 8.75 22.4998 8.75H57.4998C57.8314 8.75 58.1493 8.8817 58.3837 9.11612C58.6181 9.35054 58.7498 9.66848 58.7498 10V68.75C58.7551 68.9832 58.6951 69.2133 58.5765 69.4141C58.4579 69.615 58.2854 69.7786 58.0786 69.8866C57.8718 69.9945 57.6389 70.0425 57.4063 70.025C57.1737 70.0074 56.9506 69.9252 56.7623 69.7875Z" fill="#ED7899"/>
<path d="M56.7623 61.0375L42.2123 50.375C41.5689 49.9028 40.7917 49.6482 39.9936 49.6482C39.1955 49.6482 38.4182 49.9028 37.7748 50.375L23.2373 61.0375C23.049 61.1752 22.826 61.2575 22.5933 61.275C22.3607 61.2925 22.1279 61.2445 21.9211 61.1366C21.7143 61.0286 21.5418 60.865 21.4232 60.6641C21.3046 60.4633 21.2445 60.2332 21.2498 60V68.75C21.2492 68.9811 21.3127 69.2078 21.4332 69.405C21.5537 69.6022 21.7265 69.7622 21.9324 69.8671C22.1383 69.972 22.3693 70.0177 22.5997 69.9993C22.83 69.9808 23.0508 69.8989 23.2373 69.7625L39.2623 58.0125C39.4764 57.8561 39.7347 57.7718 39.9998 57.7718C40.265 57.7718 40.5233 57.8561 40.7373 58.0125L56.7623 69.7625C56.9489 69.8989 57.1697 69.9808 57.4 69.9993C57.6304 70.0177 57.8613 69.972 58.0672 69.8671C58.2732 69.7622 58.446 69.6022 58.5665 69.405C58.687 69.2078 58.7504 68.9811 58.7498 68.75V60C58.7551 60.2332 58.6951 60.4633 58.5765 60.6641C58.4579 60.865 58.2854 61.0286 58.0786 61.1366C57.8718 61.2445 57.6389 61.2925 57.4063 61.275C57.1737 61.2575 56.9506 61.1752 56.7623 61.0375Z" fill="#E0678F"/>
<path d="M57.5 8.75H22.5C22.1685 8.75 21.8505 8.8817 21.6161 9.11612C21.3817 9.35054 21.25 9.66848 21.25 10V16.25C21.25 15.9185 21.3817 15.6005 21.6161 15.3661C21.8505 15.1317 22.1685 15 22.5 15H57.5C57.8315 15 58.1495 15.1317 58.3839 15.3661C58.6183 15.6005 58.75 15.9185 58.75 16.25V10C58.75 9.66848 58.6183 9.35054 58.3839 9.11612C58.1495 8.8817 57.8315 8.75 57.5 8.75Z" fill="#F283A5"/>
<path d="M56.25 7.5H23.75C22.7554 7.5 21.8016 7.89509 21.0983 8.59835C20.3951 9.30161 20 10.2554 20 11.25V68.75C20.0011 69.2111 20.1297 69.663 20.3716 70.0555C20.6136 70.4481 20.9593 70.7661 21.3707 70.9744C21.7822 71.1827 22.2432 71.2732 22.7028 71.2358C23.1624 71.1984 23.6027 71.0346 23.975 70.7625L39.25 59.5125C39.4641 59.3561 39.7224 59.2718 39.9875 59.2718C40.2526 59.2718 40.5109 59.3561 40.725 59.5125L56.0125 70.7625C56.3848 71.0381 56.8264 71.2049 57.2879 71.2442C57.7495 71.2835 58.2129 71.1938 58.6264 70.985C59.04 70.7763 59.3874 70.4568 59.6299 70.0622C59.8725 69.6675 60.0006 69.2132 60 68.75V11.25C60 10.2554 59.6049 9.30161 58.9016 8.59835C58.1984 7.89509 57.2446 7.5 56.25 7.5ZM57.5 68.75L42.2125 57.5C41.5691 57.0278 40.7918 56.7732 39.9938 56.7732C39.1957 56.7732 38.4184 57.0278 37.775 57.5L22.5 68.75V11.25C22.5 10.9185 22.6317 10.6005 22.8661 10.3661C23.1005 10.1317 23.4185 10 23.75 10H56.25C56.5815 10 56.8995 10.1317 57.1339 10.3661C57.3683 10.6005 57.5 10.9185 57.5 11.25V68.75Z" fill="black"/>
<path d="M46.25 12.5C45.9185 12.5 45.6005 12.6317 45.3661 12.8661C45.1317 13.1005 45 13.4185 45 13.75V16.25C45 16.5815 45.1317 16.8995 45.3661 17.1339C45.6005 17.3683 45.9185 17.5 46.25 17.5C46.5815 17.5 46.8995 17.3683 47.1339 17.1339C47.3683 16.8995 47.5 16.5815 47.5 16.25V13.75C47.5 13.4185 47.3683 13.1005 47.1339 12.8661C46.8995 12.6317 46.5815 12.5 46.25 12.5ZM52.5 12.5C52.1685 12.5 51.8505 12.6317 51.6161 12.8661C51.3817 13.1005 51.25 13.4185 51.25 13.75V16.25C51.25 16.5815 51.3817 16.8995 51.6161 17.1339C51.8505 17.3683 52.1685 17.5 52.5 17.5C52.8315 17.5 53.1495 17.3683 53.3839 17.1339C53.6183 16.8995 53.75 16.5815 53.75 16.25V13.75C53.75 13.4185 53.6183 13.1005 53.3839 12.8661C53.1495 12.6317 52.8315 12.5 52.5 12.5ZM27.5 12.5C27.1685 12.5 26.8505 12.6317 26.6161 12.8661C26.3817 13.1005 26.25 13.4185 26.25 13.75V16.25C26.25 16.5815 26.3817 16.8995 26.6161 17.1339C26.8505 17.3683 27.1685 17.5 27.5 17.5C27.8315 17.5 28.1495 17.3683 28.3839 17.1339C28.6183 16.8995 28.75 16.5815 28.75 16.25V13.75C28.75 13.4185 28.6183 13.1005 28.3839 12.8661C28.1495 12.6317 27.8315 12.5 27.5 12.5ZM33.75 12.5C33.4185 12.5 33.1005 12.6317 32.8661 12.8661C32.6317 13.1005 32.5 13.4185 32.5 13.75V16.25C32.5 16.5815 32.6317 16.8995 32.8661 17.1339C33.1005 17.3683 33.4185 17.5 33.75 17.5C34.0815 17.5 34.3995 17.3683 34.6339 17.1339C34.8683 16.8995 35 16.5815 35 16.25V13.75C35 13.4185 34.8683 13.1005 34.6339 12.8661C34.3995 12.6317 34.0815 12.5 33.75 12.5ZM40 12.5C39.6685 12.5 39.3505 12.6317 39.1161 12.8661C38.8817 13.1005 38.75 13.4185 38.75 13.75V16.25C38.75 16.5815 38.8817 16.8995 39.1161 17.1339C39.3505 17.3683 39.6685 17.5 40 17.5C40.3315 17.5 40.6495 17.3683 40.8839 17.1339C41.1183 16.8995 41.25 16.5815 41.25 16.25V13.75C41.25 13.4185 41.1183 13.1005 40.8839 12.8661C40.6495 12.6317 40.3315 12.5 40 12.5Z" fill="black"/>
</svg>
