<svg width="42" height="28" viewBox="0 0 42 28" fill="none" xmlns="http://www.w3.org/2000/svg">
<path fill-rule="evenodd" clip-rule="evenodd" d="M9.3625 7.07C11.55 2.87 15.9425 0 21 0C27.37 0 32.6725 4.5325 33.8625 10.57C38.4125 10.885 42 14.63 42 19.25C42 24.08 38.08 28 33.25 28H10.5C4.7075 28 0 23.2925 0 17.5C0 12.0925 4.095 7.63 9.3625 7.07ZM30.4325 11.2525C29.54 6.755 25.585 3.5 21 3.5C17.395 3.5 14.14 5.495 12.4775 8.6975L11.6025 10.36L9.73 10.5525C6.1775 10.92 3.5 13.9125 3.5 17.5C3.5 21.3675 6.6325 24.5 10.5 24.5H33.25C36.1375 24.5 38.5 22.1375 38.5 19.25C38.5 16.5375 36.365 14.245 33.635 14.07L30.9575 13.8775L30.4325 11.2525Z" fill="#828282"/>
</svg>
