<svg width="80" height="80" viewBox="0 0 80 80" fill="none" xmlns="http://www.w3.org/2000/svg">
<path d="M29.05 6.17499H65C65.9946 6.17499 66.9484 6.57008 67.6516 7.27334C68.3549 7.9766 68.75 8.93043 68.75 9.92499V69.925C68.75 70.9195 68.3549 71.8734 67.6516 72.5766C66.9484 73.2799 65.9946 73.675 65 73.675H17.5C16.5054 73.675 15.5516 73.2799 14.8483 72.5766C14.1451 71.8734 13.75 70.9195 13.75 69.925V21.475C13.7509 20.4808 14.1465 19.5276 14.85 18.825L26.4 7.27499C27.1026 6.57153 28.0558 6.17586 29.05 6.17499Z" fill="#FAEFDE"/>
<path d="M13.75 73.75L13.5625 61.925L67.925 7.57499L68.75 36.25L31.25 73.75H13.75ZM13.5625 48.9375L56.325 6.17499L63.5125 6.48749L13.75 56.25L13.5625 48.9375ZM13.5625 41.4375L48.75 6.24999H52.5L13.5625 45.1875V41.4375Z" fill="#FFF7F0"/>
<path d="M56.875 16.25L58.425 19.075L61.25 20.625L58.425 22.175L56.875 25L55.325 22.175L52.5 20.625L55.325 19.075L56.875 16.25ZM38.025 13.75L39.0875 15.7L41.05 16.775L39.0875 17.8375L38.025 19.8L36.95 17.8375L35 16.775L36.95 15.7L38.025 13.75ZM20.8125 52.5L21.5375 53.825L22.875 54.5625L21.5375 55.2875L20.8125 56.625L20.0875 55.2875L18.75 54.5625L20.0875 53.825L20.8125 52.5Z" fill="white"/>
<path d="M28.75 6.25V21.25H13.75L28.75 6.25Z" fill="#BBDEF9"/>
<path d="M66.25 5.00001H29.575C28.7537 4.99854 27.9401 5.15897 27.1809 5.47212C26.4216 5.78526 25.7315 6.24499 25.15 6.82501L14.325 17.65C13.745 18.2315 13.2853 18.9216 12.9721 19.6809C12.659 20.4402 12.4985 21.2537 12.5 22.075V71.25C12.5 72.2446 12.8951 73.1984 13.5984 73.9017C14.3016 74.6049 15.2554 75 16.25 75H66.25C67.2446 75 68.1984 74.6049 68.9017 73.9017C69.6049 73.1984 70 72.2446 70 71.25V8.75001C70 7.75545 69.6049 6.80162 68.9017 6.09836C68.1984 5.3951 67.2446 5.00001 66.25 5.00001ZM26.925 8.60001C27.1004 8.42296 27.293 8.26384 27.5 8.12501V18.75C27.5 19.0815 27.3683 19.3995 27.1339 19.6339C26.8995 19.8683 26.5815 20 26.25 20H15.625C15.7638 19.793 15.923 19.6004 16.1 19.425L26.925 8.60001ZM67.5 71.25C67.5 71.5815 67.3683 71.8995 67.1339 72.1339C66.8995 72.3683 66.5815 72.5 66.25 72.5H16.25C15.9185 72.5 15.6005 72.3683 15.3661 72.1339C15.1317 71.8995 15 71.5815 15 71.25V22.5H26.25C27.2446 22.5 28.1984 22.1049 28.9017 21.4017C29.6049 20.6984 30 19.7446 30 18.75V7.50001H66.25C66.5815 7.50001 66.8995 7.63171 67.1339 7.86613C67.3683 8.10055 67.5 8.41849 67.5 8.75001V71.25Z" fill="black"/>
<path d="M56.25 27.5H51.25C50.9185 27.5 50.6005 27.6317 50.3661 27.8661C50.1317 28.1005 50 28.4185 50 28.75C50 29.0815 50.1317 29.3995 50.3661 29.6339C50.6005 29.8683 50.9185 30 51.25 30H56.25C56.5815 30 56.8995 29.8683 57.1339 29.6339C57.3683 29.3995 57.5 29.0815 57.5 28.75C57.5 28.4185 57.3683 28.1005 57.1339 27.8661C56.8995 27.6317 56.5815 27.5 56.25 27.5ZM26.25 30H46.25C46.5815 30 46.8995 29.8683 47.1339 29.6339C47.3683 29.3995 47.5 29.0815 47.5 28.75C47.5 28.4185 47.3683 28.1005 47.1339 27.8661C46.8995 27.6317 46.5815 27.5 46.25 27.5H26.25C25.9185 27.5 25.6005 27.6317 25.3661 27.8661C25.1317 28.1005 25 28.4185 25 28.75C25 29.0815 25.1317 29.3995 25.3661 29.6339C25.6005 29.8683 25.9185 30 26.25 30ZM26.25 35H51.25C51.5815 35 51.8995 34.8683 52.1339 34.6339C52.3683 34.3995 52.5 34.0815 52.5 33.75C52.5 33.4185 52.3683 33.1005 52.1339 32.8661C51.8995 32.6317 51.5815 32.5 51.25 32.5H26.25C25.9185 32.5 25.6005 32.6317 25.3661 32.8661C25.1317 33.1005 25 33.4185 25 33.75C25 34.0815 25.1317 34.3995 25.3661 34.6339C25.6005 34.8683 25.9185 35 26.25 35ZM41.25 45H26.25C25.9185 45 25.6005 45.1317 25.3661 45.3661C25.1317 45.6005 25 45.9185 25 46.25C25 46.5815 25.1317 46.8995 25.3661 47.1339C25.6005 47.3683 25.9185 47.5 26.25 47.5H41.25C41.5815 47.5 41.8995 47.3683 42.1339 47.1339C42.3683 46.8995 42.5 46.5815 42.5 46.25C42.5 45.9185 42.3683 45.6005 42.1339 45.3661C41.8995 45.1317 41.5815 45 41.25 45ZM53.75 40H26.25C25.9185 40 25.6005 40.1317 25.3661 40.3661C25.1317 40.6005 25 40.9185 25 41.25C25 41.5815 25.1317 41.8995 25.3661 42.1339C25.6005 42.3683 25.9185 42.5 26.25 42.5H53.75C54.0815 42.5 54.3995 42.3683 54.6339 42.1339C54.8683 41.8995 55 41.5815 55 41.25C55 40.9185 54.8683 40.6005 54.6339 40.3661C54.3995 40.1317 54.0815 40 53.75 40ZM18.75 62.5C18.4185 62.5 18.1005 62.6317 17.8661 62.8661C17.6317 63.1005 17.5 63.4185 17.5 63.75V66.25C17.5 66.5815 17.6317 66.8995 17.8661 67.1339C18.1005 67.3683 18.4185 67.5 18.75 67.5C19.0815 67.5 19.3995 67.3683 19.6339 67.1339C19.8683 66.8995 20 66.5815 20 66.25V63.75C20 63.4185 19.8683 63.1005 19.6339 62.8661C19.3995 62.6317 19.0815 62.5 18.75 62.5ZM25 62.5C24.6685 62.5 24.3505 62.6317 24.1161 62.8661C23.8817 63.1005 23.75 63.4185 23.75 63.75V66.25C23.75 66.5815 23.8817 66.8995 24.1161 67.1339C24.3505 67.3683 24.6685 67.5 25 67.5C25.3315 67.5 25.6495 67.3683 25.8839 67.1339C26.1183 66.8995 26.25 66.5815 26.25 66.25V63.75C26.25 63.4185 26.1183 63.1005 25.8839 62.8661C25.6495 62.6317 25.3315 62.5 25 62.5ZM31.25 62.5C30.9185 62.5 30.6005 62.6317 30.3661 62.8661C30.1317 63.1005 30 63.4185 30 63.75V66.25C30 66.5815 30.1317 66.8995 30.3661 67.1339C30.6005 67.3683 30.9185 67.5 31.25 67.5C31.5815 67.5 31.8995 67.3683 32.1339 67.1339C32.3683 66.8995 32.5 66.5815 32.5 66.25V63.75C32.5 63.4185 32.3683 63.1005 32.1339 62.8661C31.8995 62.6317 31.5815 62.5 31.25 62.5ZM37.5 62.5C37.1685 62.5 36.8505 62.6317 36.6161 62.8661C36.3817 63.1005 36.25 63.4185 36.25 63.75V66.25C36.25 66.5815 36.3817 66.8995 36.6161 67.1339C36.8505 67.3683 37.1685 67.5 37.5 67.5C37.8315 67.5 38.1495 67.3683 38.3839 67.1339C38.6183 66.8995 38.75 66.5815 38.75 66.25V63.75C38.75 63.4185 38.6183 63.1005 38.3839 62.8661C38.1495 62.6317 37.8315 62.5 37.5 62.5ZM43.75 62.5C43.4185 62.5 43.1005 62.6317 42.8661 62.8661C42.6317 63.1005 42.5 63.4185 42.5 63.75V66.25C42.5 66.5815 42.6317 66.8995 42.8661 67.1339C43.1005 67.3683 43.4185 67.5 43.75 67.5C44.0815 67.5 44.3995 67.3683 44.6339 67.1339C44.8683 66.8995 45 66.5815 45 66.25V63.75C45 63.4185 44.8683 63.1005 44.6339 62.8661C44.3995 62.6317 44.0815 62.5 43.75 62.5ZM50 62.5C49.6685 62.5 49.3505 62.6317 49.1161 62.8661C48.8817 63.1005 48.75 63.4185 48.75 63.75V66.25C48.75 66.5815 48.8817 66.8995 49.1161 67.1339C49.3505 67.3683 49.6685 67.5 50 67.5C50.3315 67.5 50.6495 67.3683 50.8839 67.1339C51.1183 66.8995 51.25 66.5815 51.25 66.25V63.75C51.25 63.4185 51.1183 63.1005 50.8839 62.8661C50.6495 62.6317 50.3315 62.5 50 62.5ZM56.25 62.5C55.9185 62.5 55.6005 62.6317 55.3661 62.8661C55.1317 63.1005 55 63.4185 55 63.75V66.25C55 66.5815 55.1317 66.8995 55.3661 67.1339C55.6005 67.3683 55.9185 67.5 56.25 67.5C56.5815 67.5 56.8995 67.3683 57.1339 67.1339C57.3683 66.8995 57.5 66.5815 57.5 66.25V63.75C57.5 63.4185 57.3683 63.1005 57.1339 62.8661C56.8995 62.6317 56.5815 62.5 56.25 62.5ZM62.5 62.5C62.1685 62.5 61.8505 62.6317 61.6161 62.8661C61.3817 63.1005 61.25 63.4185 61.25 63.75V66.25C61.25 66.5815 61.3817 66.8995 61.6161 67.1339C61.8505 67.3683 62.1685 67.5 62.5 67.5C62.8315 67.5 63.1495 67.3683 63.3839 67.1339C63.6183 66.8995 63.75 66.5815 63.75 66.25V63.75C63.75 63.4185 63.6183 63.1005 63.3839 62.8661C63.1495 62.6317 62.8315 62.5 62.5 62.5Z" fill="black"/>
</svg>
