<svg width="20" height="20" viewBox="0 0 20 20" fill="none" xmlns="http://www.w3.org/2000/svg">
<path d="M17.1571 10.975C17.1971 10.655 17.2271 10.33 17.2271 10C17.2271 9.67 17.1971 9.345 17.1571 9.025L19.2721 7.37C19.4621 7.22 19.5171 6.95 19.3921 6.73L17.3921 3.265C17.2671 3.05 17.0071 2.96 16.7821 3.05L14.2921 4.055C13.7771 3.66 13.2121 3.325 12.6021 3.07L12.2271 0.42C12.1821 0.185 11.9771 0 11.7271 0H7.72712C7.47712 0 7.27212 0.185 7.23212 0.42L6.85712 3.07C6.24712 3.325 5.68212 3.655 5.16712 4.055L2.67712 3.05C2.45212 2.965 2.19212 3.05 2.06712 3.265L0.0671224 6.73C-0.0578776 6.945 -0.00287744 7.215 0.187123 7.37L2.29712 9.025C2.25712 9.345 2.22712 9.67 2.22712 10C2.22712 10.33 2.25712 10.655 2.29712 10.975L0.187123 12.63C-0.00287744 12.78 -0.0578776 13.05 0.0671224 13.27L2.06712 16.735C2.19212 16.95 2.45212 17.04 2.67712 16.95L5.16712 15.945C5.68212 16.34 6.24712 16.675 6.85712 16.93L7.23212 19.58C7.27212 19.815 7.47712 20 7.72712 20H11.7271C11.9771 20 12.1821 19.815 12.2221 19.58L12.5971 16.93C13.2071 16.675 13.7721 16.345 14.2871 15.945L16.7771 16.95C17.0021 17.035 17.2621 16.95 17.3871 16.735L19.3871 13.27C19.5121 13.055 19.4571 12.785 19.2671 12.63L17.1571 10.975ZM9.72712 13.5C7.79212 13.5 6.22712 11.935 6.22712 10C6.22712 8.065 7.79212 6.5 9.72712 6.5C11.6621 6.5 13.2271 8.065 13.2271 10C13.2271 11.935 11.6621 13.5 9.72712 13.5Z" fill="white"/>
</svg>
