<svg width="165" height="49" viewBox="0 0 165 49" fill="none" xmlns="http://www.w3.org/2000/svg">
<g clip-path="url(#clip0)">
<path d="M18.0546 3.44851L15.4879 6.407C14.2963 5.39002 12.7379 4.55795 10.7213 4.55795C7.32959 4.55795 4.57959 7.51644 4.57959 11.1221C4.57959 14.7278 7.32959 17.6862 10.9963 17.6862C12.7379 17.6862 14.3879 17.0391 15.4879 15.8372L18.0546 18.7032C16.3129 20.6447 13.8379 21.5693 10.6296 21.5693C4.85459 21.6617 0.45459 16.9466 0.45459 11.2145C0.45459 5.39002 5.03792 0.674927 10.7213 0.674927C14.1129 0.674927 16.4046 1.78436 18.0546 3.44851ZM28.3213 0.674927C34.0046 0.674927 38.6796 5.39002 38.6796 11.2145C38.6796 17.0391 34.0046 21.7542 28.3213 21.7542C22.6379 21.7542 17.9629 17.0391 17.9629 11.2145C18.0546 5.39002 22.6379 0.674927 28.3213 0.674927ZM28.3213 17.7787C31.7129 17.7787 34.5546 14.8202 34.5546 11.2145C34.5546 7.60889 31.8046 4.6504 28.3213 4.6504C24.9296 4.6504 22.1796 7.60889 22.1796 11.2145C22.1796 14.8202 24.9296 17.7787 28.3213 17.7787ZM41.1546 21.2919V1.13719H47.7546C54.3546 1.13719 59.0296 5.39002 59.0296 11.2145C59.0296 17.0391 54.3546 21.1995 47.9379 21.1995H41.1546V21.2919ZM47.7546 4.8353H45.0963V17.5938H47.7546C52.0629 17.5938 54.9046 15.0976 54.9046 11.2145C54.9046 7.33153 52.0629 4.8353 47.7546 4.8353ZM61.4129 21.2919V1.13719H74.3379V4.8353H65.2629V9.27304H73.0546V12.9712H65.2629V17.5938H74.3379V21.2919H61.4129Z" fill="#A3C2FF"/>
<path d="M38.2212 30.2598L35.6545 33.2183C34.4629 32.2013 32.9045 31.3693 30.8879 31.3693C27.4962 31.3693 24.7462 34.3277 24.7462 37.9334C24.7462 41.5391 27.4962 44.4976 31.1629 44.4976C32.9045 44.4976 34.5545 43.8504 35.6545 42.6485L38.2212 45.5145C36.4795 47.456 34.0045 48.3806 30.7962 48.3806C24.9295 48.3806 20.5295 43.6655 20.5295 37.841C20.6212 32.2013 25.2045 27.4862 30.8879 27.4862C34.2795 27.4862 36.5712 28.5957 38.2212 30.2598ZM48.4879 27.4862C54.1712 27.4862 58.8462 32.2013 58.8462 38.0259C58.8462 43.8504 54.1712 48.5655 48.4879 48.5655C42.8045 48.5655 38.1295 43.8504 38.1295 38.0259C38.2212 32.2013 42.8045 27.4862 48.4879 27.4862ZM48.4879 44.59C51.8795 44.59 54.7212 41.6315 54.7212 38.0259C54.7212 34.4202 51.9712 31.4617 48.4879 31.4617C45.0962 31.4617 42.3462 34.4202 42.3462 38.0259C42.3462 41.6315 45.0962 44.59 48.4879 44.59ZM74.4295 48.1032L65.1712 34.4202V48.1032H61.3212V27.9485H65.5379L74.8879 41.724V27.9485H78.7379V48.1032H74.4295ZM95.1462 48.1032L85.8879 34.4202V48.1032H82.0379V27.9485H86.2545L95.6045 41.724V27.9485H99.4545V48.1032H95.1462ZM102.755 48.1032V27.9485H115.68V31.6466H106.605V36.0843H114.396V39.7825H106.605V44.4051H115.68V48.1032H102.755ZM134.013 30.2598L131.446 33.2183C130.255 32.2013 128.696 31.3693 126.68 31.3693C123.288 31.3693 120.538 34.3277 120.538 37.9334C120.538 41.5391 123.288 44.4976 126.955 44.4976C128.696 44.4976 130.346 43.8504 131.446 42.6485L134.013 45.5145C132.271 47.456 129.796 48.3806 126.588 48.3806C120.721 48.3806 116.321 43.6655 116.321 37.841C116.321 32.0164 120.905 27.3013 126.588 27.3013C129.98 27.4862 132.363 28.5957 134.013 30.2598ZM149.505 31.6466H143.546V48.1032H139.696V31.6466H133.738V27.9485H149.505V31.6466ZM164.813 30.907L162.155 33.5881C161.238 32.2938 159.496 31.2768 157.48 31.2768C155.646 31.2768 154.546 32.1089 154.546 33.3108C154.546 36.9164 165.088 35.2523 165.088 42.3711C165.088 45.9768 162.063 48.6579 157.48 48.6579C153.355 48.6579 150.971 46.9938 149.688 45.0523L152.438 42.4636C153.721 44.1277 155.463 44.9598 157.48 44.9598C159.68 44.9598 160.871 44.0353 160.871 42.6485C160.871 38.7655 150.33 40.5221 150.33 33.4957C150.33 30.0749 153.355 27.6711 157.663 27.6711C160.871 27.4862 163.438 28.9655 164.813 30.907Z" fill="white"/>
<path d="M28.4128 13.8957C29.9316 13.8957 31.1628 12.6539 31.1628 11.1221C31.1628 9.59029 29.9316 8.34851 28.4128 8.34851C26.8941 8.34851 25.6628 9.59029 25.6628 11.1221C25.6628 12.6539 26.8941 13.8957 28.4128 13.8957Z" fill="#38C1CF" stroke="#38C1CF"/>
<path d="M48.5796 40.707C50.0984 40.707 51.3296 39.4652 51.3296 37.9334C51.3296 36.4016 50.0984 35.1598 48.5796 35.1598C47.0608 35.1598 45.8296 36.4016 45.8296 37.9334C45.8296 39.4652 47.0608 40.707 48.5796 40.707Z" fill="#38C1CF" stroke="#38C1CF"/>
<path d="M28.4128 19.9051C32.9962 19.6278 35.5628 17.3164 36.2045 12.9712" stroke="#A3C2FF" stroke-width="5"/>
<path d="M48.1213 29.6127C43.5379 29.89 40.9713 32.2013 40.3296 36.5466" stroke="white" stroke-width="5"/>
<path d="M28.4128 11.1221L48.5795 38.8579L28.4128 11.1221Z" fill="#38C1CF"/>
<path d="M28.4128 11.1221L48.5795 38.8579" stroke="#38C1CF" stroke-width="3"/>
</g>
<defs>
<clipPath id="clip0">
<rect width="165" height="49" fill="white"/>
</clipPath>
</defs>
</svg>
