<svg width="99" height="99" viewBox="0 0 99 99" fill="none" xmlns="http://www.w3.org/2000/svg">
<path d="M49.5 0C22.1512 0 0 22.1512 0 49.5C0 76.8487 22.1512 99 49.5 99C76.8487 99 99 76.8487 99 49.5C99 22.1512 76.8487 0 49.5 0ZM49.5 14.85C57.6922 14.85 64.35 21.5077 64.35 29.7C64.35 37.917 57.6922 44.55 49.5 44.55C41.3077 44.55 34.65 37.917 34.65 29.7C34.65 21.5077 41.3077 14.85 49.5 14.85ZM49.5 85.14C37.1002 85.14 26.2102 78.804 19.8 69.201C19.9237 59.3752 39.6247 53.955 49.5 53.955C59.3752 53.955 79.0515 59.3752 79.2 69.201C72.7897 78.804 61.8997 85.14 49.5 85.14Z" fill="white"/>
</svg>
