<svg width="13" height="13" viewBox="0 0 13 13" fill="none" xmlns="http://www.w3.org/2000/svg">
<path d="M6.5 1.54375C7.4425 1.54375 8.20625 2.3075 8.20625 3.25C8.20625 4.1925 7.4425 4.95625 6.5 4.95625C5.5575 4.95625 4.79375 4.1925 4.79375 3.25C4.79375 2.3075 5.5575 1.54375 6.5 1.54375ZM6.5 8.85625C8.91719 8.85625 11.4563 10.0384 11.4563 10.5625V11.4563H1.54375V10.5625C1.54375 10.0384 4.08281 8.85625 6.5 8.85625ZM6.5 0C4.70437 0 3.25 1.45438 3.25 3.25C3.25 5.04156 4.70437 6.5 6.5 6.5C8.29562 6.5 9.75 5.04156 9.75 3.25C9.75 1.45438 8.29562 0 6.5 0ZM6.5 7.3125C4.33469 7.3125 0 8.39719 0 10.5625V13H13V10.5625C13 8.39719 8.66531 7.3125 6.5 7.3125Z" fill="#BDBDBD"/>
</svg>
