<svg width="10" height="13" viewBox="0 0 10 13" fill="none" xmlns="http://www.w3.org/2000/svg">
<path d="M4.95238 9.90476C5.63333 9.90476 6.19048 9.34762 6.19048 8.66667C6.19048 7.98571 5.63333 7.42857 4.95238 7.42857C4.27143 7.42857 3.71429 7.98571 3.71429 8.66667C3.71429 9.34762 4.27143 9.90476 4.95238 9.90476ZM8.66667 4.33333H8.04762V3.09524C8.04762 1.38667 6.66095 0 4.95238 0C3.24381 0 1.85714 1.38667 1.85714 3.09524V4.33333H1.2381C0.557143 4.33333 0 4.89048 0 5.57143V11.7619C0 12.4429 0.557143 13 1.2381 13H8.66667C9.34762 13 9.90476 12.4429 9.90476 11.7619V5.57143C9.90476 4.89048 9.34762 4.33333 8.66667 4.33333ZM3.03333 3.09524C3.03333 2.03667 3.89381 1.17619 4.95238 1.17619C6.01095 1.17619 6.87143 2.03667 6.87143 3.09524V4.33333H3.03333V3.09524ZM8.66667 11.7619H1.2381V5.57143H8.66667V11.7619Z" fill="#BDBDBD"/>
</svg>
